<?xml version="1.0" encoding="UTF-8" standalone="no" ?>
<!DOCTYPE svg PUBLIC "-//W3C//DTD SVG 1.1//EN" "http://www.w3.org/Graphics/SVG/1.1/DTD/svg11.dtd">
<svg xmlns="http://www.w3.org/2000/svg" xmlns:xlink="http://www.w3.org/1999/xlink" version="1.1" width="672" height="384" viewBox="0 0 672 384" xml:space="preserve">
<desc>Created with Fabric.js 2.2.4</desc>
<defs>
</defs>
<rect x="0" y="0" width="100%" height="100%" fill="#480000"></rect>
<g transform="translate(64.34 65.34) scale(0.16 0.16)" style="">
	<circle cx="0" cy="0" r="15.4" style="stroke: none; stroke-width: 1; stroke-dasharray: none; stroke-linecap: butt; stroke-linejoin: miter; stroke-miterlimit: 10; fill: rgb(135,206,250); fill-rule: nonzero; opacity: 1;" transform="translate(-80.7 39.7) "/>
	<circle cx="0" cy="0" r="15.4" style="stroke: none; stroke-width: 1; stroke-dasharray: none; stroke-linecap: butt; stroke-linejoin: miter; stroke-miterlimit: 10; fill: rgb(135,206,250); fill-rule: nonzero; opacity: 1;" transform="translate(80.7 39.7) "/>
	<path d="M 349.7 182 v -6.7 c 0 -86.1 -70.1 -156.2 -156.2 -156.2 c -86.1 0 -156.2 70.1 -156.2 156.2 v 6.7 C 16.1 185.8 0 204.4 0 226.6 c 0 22.5 16.4 41.1 37.9 44.7 c 3 34.4 18.8 59.8 46.9 75.7 c 25.1 14.1 60.6 20.9 108.7 20.9 c 48.1 0 83.6 -6.8 108.7 -20.9 c 28.2 -15.8 43.9 -41.2 46.9 -75.7 c 21.5 -3.6 37.9 -22.2 37.9 -44.7 C 387 204.4 370.9 185.8 349.7 182 z M 37.3 254.9 C 25 251.4 16 240 16 226.6 c 0 -13.4 9 -24.7 21.3 -28.2 V 254.9 z M 294.4 333 c -22.6 12.7 -55.6 18.9 -100.9 18.9 c -45.3 0 -78.3 -6.2 -100.9 -18.9 c -26.5 -14.9 -39.3 -39.2 -39.3 -74.3 v -83.4 C 53.3 112 95.5 58.4 153.2 41 c 44 0.6 67.4 32.3 67.4 55.3 c 0 17.6 -14.3 31.9 -31.9 31.9 c -13.2 0 -23.9 -10.7 -23.9 -23.9 c 0 -9.7 7.9 -17.6 17.6 -17.6 c 4.4 0 8 -3.6 8 -8 c 0 -4.4 -3.6 -8 -8 -8 c -18.5 0 -33.6 15.1 -33.6 33.6 c 0 22 17.9 39.9 39.9 39.9 c 26.4 0 47.9 -21.5 47.9 -47.9 c 0 -16.6 -8.3 -34.5 -22.3 -47.8 c -5.6 -5.3 -12 -9.8 -18.9 -13.4 c 76.4 1 138.3 63.5 138.3 140.2 v 83.4 h 0 C 333.7 293.9 320.9 318.2 294.4 333 z M 349.7 254.9 v -56.4 c 12.3 3.5 21.3 14.8 21.3 28.2 C 371 240 362 251.4 349.7 254.9 z M 224.5 255.2 c -17.1 17.1 -44.8 17.1 -61.9 0 c -3.1 -3.1 -8.2 -3.1 -11.3 0 c -3.1 3.1 -3.1 8.2 0 11.3 c 11.6 11.6 27 17.5 42.3 17.5 s 30.6 -5.8 42.3 -17.5 c 3.1 -3.1 3.1 -8.2 0 -11.3 C 232.6 252.1 227.6 252.1 224.5 255.2 z" style="stroke: none; stroke-width: 1; stroke-dasharray: none; stroke-linecap: butt; stroke-linejoin: miter; stroke-miterlimit: 10; fill: rgb(135,206,250); fill-rule: nonzero; opacity: 1;" transform="translate(0 0) translate(-193.49999999999997, -193.5) " stroke-linecap="round" />
</g>
<g transform="translate(158.34 127.34) scale(0.16 0.16)" style="">
	<circle cx="0" cy="0" r="15.4" style="stroke: none; stroke-width: 1; stroke-dasharray: none; stroke-linecap: butt; stroke-linejoin: miter; stroke-miterlimit: 10; fill: rgb(255,228,181); fill-rule: nonzero; opacity: 1;" transform="translate(-80.7 39.7) "/>
	<circle cx="0" cy="0" r="15.4" style="stroke: none; stroke-width: 1; stroke-dasharray: none; stroke-linecap: butt; stroke-linejoin: miter; stroke-miterlimit: 10; fill: rgb(255,228,181); fill-rule: nonzero; opacity: 1;" transform="translate(80.7 39.7) "/>
	<path d="M 349.7 182 v -6.7 c 0 -86.1 -70.1 -156.2 -156.2 -156.2 c -86.1 0 -156.2 70.1 -156.2 156.2 v 6.7 C 16.1 185.8 0 204.4 0 226.6 c 0 22.5 16.4 41.1 37.9 44.7 c 3 34.4 18.8 59.8 46.9 75.7 c 25.1 14.1 60.6 20.9 108.7 20.9 c 48.1 0 83.6 -6.8 108.7 -20.9 c 28.2 -15.8 43.9 -41.2 46.9 -75.7 c 21.5 -3.6 37.9 -22.2 37.9 -44.7 C 387 204.4 370.9 185.8 349.7 182 z M 37.3 254.9 C 25 251.4 16 240 16 226.6 c 0 -13.4 9 -24.7 21.3 -28.2 V 254.9 z M 294.4 333 c -22.6 12.7 -55.6 18.9 -100.9 18.9 c -45.3 0 -78.3 -6.2 -100.9 -18.9 c -26.5 -14.9 -39.3 -39.2 -39.3 -74.3 v -83.4 C 53.3 112 95.5 58.4 153.2 41 c 44 0.6 67.4 32.3 67.4 55.3 c 0 17.6 -14.3 31.9 -31.9 31.9 c -13.2 0 -23.9 -10.7 -23.9 -23.9 c 0 -9.7 7.9 -17.6 17.6 -17.6 c 4.4 0 8 -3.6 8 -8 c 0 -4.4 -3.6 -8 -8 -8 c -18.5 0 -33.6 15.1 -33.6 33.6 c 0 22 17.9 39.9 39.9 39.9 c 26.4 0 47.9 -21.5 47.9 -47.9 c 0 -16.6 -8.3 -34.5 -22.3 -47.8 c -5.6 -5.3 -12 -9.8 -18.9 -13.4 c 76.4 1 138.3 63.5 138.3 140.2 v 83.4 h 0 C 333.7 293.9 320.9 318.2 294.4 333 z M 349.7 254.9 v -56.4 c 12.3 3.5 21.3 14.8 21.3 28.2 C 371 240 362 251.4 349.7 254.9 z M 224.5 255.2 c -17.1 17.1 -44.8 17.1 -61.9 0 c -3.1 -3.1 -8.2 -3.1 -11.3 0 c -3.1 3.1 -3.1 8.2 0 11.3 c 11.6 11.6 27 17.5 42.3 17.5 s 30.6 -5.8 42.3 -17.5 c 3.1 -3.1 3.1 -8.2 0 -11.3 C 232.6 252.1 227.6 252.1 224.5 255.2 z" style="stroke: none; stroke-width: 1; stroke-dasharray: none; stroke-linecap: butt; stroke-linejoin: miter; stroke-miterlimit: 10; fill: rgb(255,228,181); fill-rule: nonzero; opacity: 1;" transform="translate(0 0) translate(-193.49999999999997, -193.5) " stroke-linecap="round" />
</g>
<g transform="translate(334.34 127.34) scale(0.16 0.16)" style="">
	<circle cx="0" cy="0" r="15.4" style="stroke: none; stroke-width: 1; stroke-dasharray: none; stroke-linecap: butt; stroke-linejoin: miter; stroke-miterlimit: 10; fill: rgb(255,182,193); fill-rule: nonzero; opacity: 1;" transform="translate(-80.7 39.7) "/>
	<circle cx="0" cy="0" r="15.4" style="stroke: none; stroke-width: 1; stroke-dasharray: none; stroke-linecap: butt; stroke-linejoin: miter; stroke-miterlimit: 10; fill: rgb(255,182,193); fill-rule: nonzero; opacity: 1;" transform="translate(80.7 39.7) "/>
	<path d="M 349.7 182 v -6.7 c 0 -86.1 -70.1 -156.2 -156.2 -156.2 c -86.1 0 -156.2 70.1 -156.2 156.2 v 6.7 C 16.1 185.8 0 204.4 0 226.6 c 0 22.5 16.4 41.1 37.9 44.7 c 3 34.4 18.8 59.8 46.9 75.7 c 25.1 14.1 60.6 20.9 108.7 20.9 c 48.1 0 83.6 -6.8 108.7 -20.9 c 28.2 -15.8 43.9 -41.2 46.9 -75.7 c 21.5 -3.6 37.9 -22.2 37.9 -44.7 C 387 204.4 370.9 185.8 349.7 182 z M 37.3 254.9 C 25 251.4 16 240 16 226.6 c 0 -13.4 9 -24.7 21.3 -28.2 V 254.9 z M 294.4 333 c -22.6 12.7 -55.6 18.9 -100.9 18.9 c -45.3 0 -78.3 -6.2 -100.9 -18.9 c -26.5 -14.9 -39.3 -39.2 -39.3 -74.3 v -83.4 C 53.3 112 95.5 58.4 153.2 41 c 44 0.6 67.4 32.3 67.4 55.3 c 0 17.6 -14.3 31.9 -31.9 31.9 c -13.2 0 -23.9 -10.7 -23.9 -23.9 c 0 -9.7 7.9 -17.6 17.6 -17.6 c 4.4 0 8 -3.6 8 -8 c 0 -4.4 -3.6 -8 -8 -8 c -18.5 0 -33.6 15.1 -33.6 33.6 c 0 22 17.9 39.9 39.9 39.9 c 26.4 0 47.9 -21.5 47.9 -47.9 c 0 -16.6 -8.3 -34.5 -22.3 -47.8 c -5.6 -5.3 -12 -9.8 -18.9 -13.4 c 76.4 1 138.3 63.5 138.3 140.2 v 83.4 h 0 C 333.7 293.9 320.9 318.2 294.4 333 z M 349.7 254.9 v -56.4 c 12.3 3.5 21.3 14.8 21.3 28.2 C 371 240 362 251.4 349.7 254.9 z M 224.5 255.2 c -17.1 17.1 -44.8 17.1 -61.9 0 c -3.1 -3.1 -8.2 -3.1 -11.3 0 c -3.1 3.1 -3.1 8.2 0 11.3 c 11.6 11.6 27 17.5 42.3 17.5 s 30.6 -5.8 42.3 -17.5 c 3.1 -3.1 3.1 -8.2 0 -11.3 C 232.6 252.1 227.6 252.1 224.5 255.2 z" style="stroke: none; stroke-width: 1; stroke-dasharray: none; stroke-linecap: butt; stroke-linejoin: miter; stroke-miterlimit: 10; fill: rgb(255,182,193); fill-rule: nonzero; opacity: 1;" transform="translate(0 0) translate(-193.49999999999997, -193.5) " stroke-linecap="round" />
</g>
<g transform="translate(250.34 67.34) scale(0.16 0.16)" style="">
	<circle cx="0" cy="0" r="15.4" style="stroke: none; stroke-width: 1; stroke-dasharray: none; stroke-linecap: butt; stroke-linejoin: miter; stroke-miterlimit: 10; fill: rgb(255,228,181); fill-rule: nonzero; opacity: 1;" transform="translate(-80.7 39.7) "/>
	<circle cx="0" cy="0" r="15.4" style="stroke: none; stroke-width: 1; stroke-dasharray: none; stroke-linecap: butt; stroke-linejoin: miter; stroke-miterlimit: 10; fill: rgb(255,228,181); fill-rule: nonzero; opacity: 1;" transform="translate(80.7 39.7) "/>
	<path d="M 349.7 182 v -6.7 c 0 -86.1 -70.1 -156.2 -156.2 -156.2 c -86.1 0 -156.2 70.1 -156.2 156.2 v 6.7 C 16.1 185.8 0 204.4 0 226.6 c 0 22.5 16.4 41.1 37.9 44.7 c 3 34.4 18.8 59.8 46.9 75.7 c 25.1 14.1 60.6 20.9 108.7 20.9 c 48.1 0 83.6 -6.8 108.7 -20.9 c 28.2 -15.8 43.9 -41.2 46.9 -75.7 c 21.5 -3.6 37.9 -22.2 37.9 -44.7 C 387 204.4 370.9 185.8 349.7 182 z M 37.3 254.9 C 25 251.4 16 240 16 226.6 c 0 -13.4 9 -24.7 21.3 -28.2 V 254.9 z M 294.4 333 c -22.6 12.7 -55.6 18.9 -100.9 18.9 c -45.3 0 -78.3 -6.2 -100.9 -18.9 c -26.5 -14.9 -39.3 -39.2 -39.3 -74.3 v -83.4 C 53.3 112 95.5 58.4 153.2 41 c 44 0.6 67.4 32.3 67.4 55.3 c 0 17.6 -14.3 31.9 -31.9 31.9 c -13.2 0 -23.9 -10.7 -23.9 -23.9 c 0 -9.7 7.9 -17.6 17.6 -17.6 c 4.4 0 8 -3.6 8 -8 c 0 -4.4 -3.6 -8 -8 -8 c -18.5 0 -33.6 15.1 -33.6 33.6 c 0 22 17.9 39.9 39.9 39.9 c 26.4 0 47.9 -21.5 47.9 -47.9 c 0 -16.6 -8.3 -34.5 -22.3 -47.8 c -5.6 -5.3 -12 -9.8 -18.9 -13.4 c 76.4 1 138.3 63.5 138.3 140.2 v 83.4 h 0 C 333.7 293.9 320.9 318.2 294.4 333 z M 349.7 254.9 v -56.4 c 12.3 3.5 21.3 14.8 21.3 28.2 C 371 240 362 251.4 349.7 254.9 z M 224.5 255.2 c -17.1 17.1 -44.8 17.1 -61.9 0 c -3.1 -3.1 -8.2 -3.1 -11.3 0 c -3.1 3.1 -3.1 8.2 0 11.3 c 11.6 11.6 27 17.5 42.3 17.5 s 30.6 -5.8 42.3 -17.5 c 3.1 -3.1 3.1 -8.2 0 -11.3 C 232.6 252.1 227.6 252.1 224.5 255.2 z" style="stroke: none; stroke-width: 1; stroke-dasharray: none; stroke-linecap: butt; stroke-linejoin: miter; stroke-miterlimit: 10; fill: rgb(255,228,181); fill-rule: nonzero; opacity: 1;" transform="translate(0 0) translate(-193.49999999999997, -193.5) " stroke-linecap="round" />
</g>
<g transform="translate(426.34 67.34) scale(0.16 0.16)" style="">
	<circle cx="0" cy="0" r="15.4" style="stroke: none; stroke-width: 1; stroke-dasharray: none; stroke-linecap: butt; stroke-linejoin: miter; stroke-miterlimit: 10; fill: rgb(255,228,181); fill-rule: nonzero; opacity: 1;" transform="translate(-80.7 39.7) "/>
	<circle cx="0" cy="0" r="15.4" style="stroke: none; stroke-width: 1; stroke-dasharray: none; stroke-linecap: butt; stroke-linejoin: miter; stroke-miterlimit: 10; fill: rgb(255,228,181); fill-rule: nonzero; opacity: 1;" transform="translate(80.7 39.7) "/>
	<path d="M 349.7 182 v -6.7 c 0 -86.1 -70.1 -156.2 -156.2 -156.2 c -86.1 0 -156.2 70.1 -156.2 156.2 v 6.7 C 16.1 185.8 0 204.4 0 226.6 c 0 22.5 16.4 41.1 37.9 44.7 c 3 34.4 18.8 59.8 46.9 75.7 c 25.1 14.1 60.6 20.9 108.7 20.9 c 48.1 0 83.6 -6.8 108.7 -20.9 c 28.2 -15.8 43.9 -41.2 46.9 -75.7 c 21.5 -3.6 37.9 -22.2 37.9 -44.7 C 387 204.4 370.9 185.8 349.7 182 z M 37.3 254.9 C 25 251.4 16 240 16 226.6 c 0 -13.4 9 -24.7 21.3 -28.2 V 254.9 z M 294.4 333 c -22.6 12.7 -55.6 18.9 -100.9 18.9 c -45.3 0 -78.3 -6.2 -100.9 -18.9 c -26.5 -14.9 -39.3 -39.2 -39.3 -74.3 v -83.4 C 53.3 112 95.5 58.4 153.2 41 c 44 0.6 67.4 32.3 67.4 55.3 c 0 17.6 -14.3 31.9 -31.9 31.9 c -13.2 0 -23.9 -10.7 -23.9 -23.9 c 0 -9.7 7.9 -17.6 17.6 -17.6 c 4.4 0 8 -3.6 8 -8 c 0 -4.4 -3.6 -8 -8 -8 c -18.5 0 -33.6 15.1 -33.6 33.6 c 0 22 17.9 39.9 39.9 39.9 c 26.4 0 47.9 -21.5 47.9 -47.9 c 0 -16.6 -8.3 -34.5 -22.3 -47.8 c -5.6 -5.3 -12 -9.8 -18.9 -13.4 c 76.4 1 138.3 63.5 138.3 140.2 v 83.4 h 0 C 333.7 293.9 320.9 318.2 294.4 333 z M 349.7 254.9 v -56.4 c 12.3 3.5 21.3 14.8 21.3 28.2 C 371 240 362 251.4 349.7 254.9 z M 224.5 255.2 c -17.1 17.1 -44.8 17.1 -61.9 0 c -3.1 -3.1 -8.2 -3.1 -11.3 0 c -3.1 3.1 -3.1 8.2 0 11.3 c 11.6 11.6 27 17.5 42.3 17.5 s 30.6 -5.8 42.3 -17.5 c 3.1 -3.1 3.1 -8.2 0 -11.3 C 232.6 252.1 227.6 252.1 224.5 255.2 z" style="stroke: none; stroke-width: 1; stroke-dasharray: none; stroke-linecap: butt; stroke-linejoin: miter; stroke-miterlimit: 10; fill: rgb(255,228,181); fill-rule: nonzero; opacity: 1;" transform="translate(0 0) translate(-193.49999999999997, -193.5) " stroke-linecap="round" />
</g>
<g transform="translate(517.34 124.34) scale(0.16 0.16)" style="">
	<circle cx="0" cy="0" r="15.4" style="stroke: none; stroke-width: 1; stroke-dasharray: none; stroke-linecap: butt; stroke-linejoin: miter; stroke-miterlimit: 10; fill: rgb(255,228,181); fill-rule: nonzero; opacity: 1;" transform="translate(-80.7 39.7) "/>
	<circle cx="0" cy="0" r="15.4" style="stroke: none; stroke-width: 1; stroke-dasharray: none; stroke-linecap: butt; stroke-linejoin: miter; stroke-miterlimit: 10; fill: rgb(255,228,181); fill-rule: nonzero; opacity: 1;" transform="translate(80.7 39.7) "/>
	<path d="M 349.7 182 v -6.7 c 0 -86.1 -70.1 -156.2 -156.2 -156.2 c -86.1 0 -156.2 70.1 -156.2 156.2 v 6.7 C 16.1 185.8 0 204.4 0 226.6 c 0 22.5 16.4 41.1 37.9 44.7 c 3 34.4 18.8 59.8 46.9 75.7 c 25.1 14.1 60.6 20.9 108.7 20.9 c 48.1 0 83.6 -6.8 108.7 -20.9 c 28.2 -15.8 43.9 -41.2 46.9 -75.7 c 21.5 -3.6 37.9 -22.2 37.9 -44.7 C 387 204.4 370.9 185.8 349.7 182 z M 37.3 254.9 C 25 251.4 16 240 16 226.6 c 0 -13.4 9 -24.7 21.3 -28.2 V 254.9 z M 294.4 333 c -22.6 12.7 -55.6 18.9 -100.9 18.9 c -45.3 0 -78.3 -6.2 -100.9 -18.9 c -26.5 -14.9 -39.3 -39.2 -39.3 -74.3 v -83.4 C 53.3 112 95.5 58.4 153.2 41 c 44 0.6 67.4 32.3 67.4 55.3 c 0 17.6 -14.3 31.9 -31.9 31.9 c -13.2 0 -23.9 -10.7 -23.9 -23.9 c 0 -9.7 7.9 -17.6 17.6 -17.6 c 4.4 0 8 -3.6 8 -8 c 0 -4.4 -3.6 -8 -8 -8 c -18.5 0 -33.6 15.1 -33.6 33.6 c 0 22 17.9 39.9 39.9 39.9 c 26.4 0 47.9 -21.5 47.9 -47.9 c 0 -16.6 -8.3 -34.5 -22.3 -47.8 c -5.6 -5.3 -12 -9.8 -18.9 -13.4 c 76.4 1 138.3 63.5 138.3 140.2 v 83.4 h 0 C 333.7 293.9 320.9 318.2 294.4 333 z M 349.7 254.9 v -56.4 c 12.3 3.5 21.3 14.8 21.3 28.2 C 371 240 362 251.4 349.7 254.9 z M 224.5 255.2 c -17.1 17.1 -44.8 17.1 -61.9 0 c -3.1 -3.1 -8.2 -3.1 -11.3 0 c -3.1 3.1 -3.1 8.2 0 11.3 c 11.6 11.6 27 17.5 42.3 17.5 s 30.6 -5.8 42.3 -17.5 c 3.1 -3.1 3.1 -8.2 0 -11.3 C 232.6 252.1 227.6 252.1 224.5 255.2 z" style="stroke: none; stroke-width: 1; stroke-dasharray: none; stroke-linecap: butt; stroke-linejoin: miter; stroke-miterlimit: 10; fill: rgb(255,228,181); fill-rule: nonzero; opacity: 1;" transform="translate(0 0) translate(-193.49999999999997, -193.5) " stroke-linecap="round" />
</g>
<g transform="translate(606.34 70.34) scale(0.16 0.16)" style="">
	<circle cx="0" cy="0" r="15.4" style="stroke: none; stroke-width: 1; stroke-dasharray: none; stroke-linecap: butt; stroke-linejoin: miter; stroke-miterlimit: 10; fill: rgb(135,206,250); fill-rule: nonzero; opacity: 1;" transform="translate(-80.7 39.7) "/>
	<circle cx="0" cy="0" r="15.4" style="stroke: none; stroke-width: 1; stroke-dasharray: none; stroke-linecap: butt; stroke-linejoin: miter; stroke-miterlimit: 10; fill: rgb(135,206,250); fill-rule: nonzero; opacity: 1;" transform="translate(80.7 39.7) "/>
	<path d="M 349.7 182 v -6.7 c 0 -86.1 -70.1 -156.2 -156.2 -156.2 c -86.1 0 -156.2 70.1 -156.2 156.2 v 6.7 C 16.1 185.8 0 204.4 0 226.6 c 0 22.5 16.4 41.1 37.9 44.7 c 3 34.4 18.8 59.8 46.9 75.7 c 25.1 14.1 60.6 20.9 108.7 20.9 c 48.1 0 83.6 -6.8 108.7 -20.9 c 28.2 -15.8 43.9 -41.2 46.9 -75.7 c 21.5 -3.6 37.9 -22.2 37.9 -44.7 C 387 204.4 370.9 185.8 349.7 182 z M 37.3 254.9 C 25 251.4 16 240 16 226.6 c 0 -13.4 9 -24.7 21.3 -28.2 V 254.9 z M 294.4 333 c -22.6 12.7 -55.6 18.9 -100.9 18.9 c -45.3 0 -78.3 -6.2 -100.9 -18.9 c -26.5 -14.9 -39.3 -39.2 -39.3 -74.3 v -83.4 C 53.3 112 95.5 58.4 153.2 41 c 44 0.6 67.4 32.3 67.4 55.3 c 0 17.6 -14.3 31.9 -31.9 31.9 c -13.2 0 -23.9 -10.7 -23.9 -23.9 c 0 -9.7 7.9 -17.6 17.6 -17.6 c 4.4 0 8 -3.6 8 -8 c 0 -4.4 -3.6 -8 -8 -8 c -18.5 0 -33.6 15.1 -33.6 33.6 c 0 22 17.9 39.9 39.9 39.9 c 26.4 0 47.9 -21.5 47.9 -47.9 c 0 -16.6 -8.3 -34.5 -22.3 -47.8 c -5.6 -5.3 -12 -9.8 -18.9 -13.4 c 76.4 1 138.3 63.5 138.3 140.2 v 83.4 h 0 C 333.7 293.9 320.9 318.2 294.4 333 z M 349.7 254.9 v -56.4 c 12.3 3.5 21.3 14.8 21.3 28.2 C 371 240 362 251.4 349.7 254.9 z M 224.5 255.2 c -17.1 17.1 -44.8 17.1 -61.9 0 c -3.1 -3.1 -8.2 -3.1 -11.3 0 c -3.1 3.1 -3.1 8.2 0 11.3 c 11.6 11.6 27 17.5 42.3 17.5 s 30.6 -5.8 42.3 -17.5 c 3.1 -3.1 3.1 -8.2 0 -11.3 C 232.6 252.1 227.6 252.1 224.5 255.2 z" style="stroke: none; stroke-width: 1; stroke-dasharray: none; stroke-linecap: butt; stroke-linejoin: miter; stroke-miterlimit: 10; fill: rgb(135,206,250); fill-rule: nonzero; opacity: 1;" transform="translate(0 0) translate(-193.49999999999997, -193.5) " stroke-linecap="round" />
</g>
<rect x="-90" y="-90" rx="0" ry="0" width="180" height="180" style="stroke: rgb(73,80,87); stroke-width: 0; stroke-dasharray: none; stroke-linecap: butt; stroke-linejoin: miter; stroke-miterlimit: 10; fill: rgb(255,182,193); fill-rule: nonzero; opacity: 1;" transform="translate(91 332.58) scale(1 0.63)"/>
<rect x="-90" y="-90" rx="0" ry="0" width="180" height="180" style="stroke: rgb(73,80,87); stroke-width: 0; stroke-dasharray: none; stroke-linecap: butt; stroke-linejoin: miter; stroke-miterlimit: 10; fill: rgb(135,206,250); fill-rule: nonzero; opacity: 1;" transform="translate(585 332.58) scale(1 0.63)"/>
<rect x="-90" y="-90" rx="0" ry="0" width="180" height="180" style="stroke: rgb(73,80,87); stroke-width: 0; stroke-dasharray: none; stroke-linecap: butt; stroke-linejoin: miter; stroke-miterlimit: 10; fill: rgb(245,222,179); fill-rule: nonzero; opacity: 1;" transform="translate(337.8 366) scale(1.77 1)"/>
	<g transform="translate(336.69 215.91) scale(1.37 1.37)">
		<text xml:space="preserve" font-family="Titan One" font-size="30" font-style="normal" font-weight="normal" style="stroke: none; stroke-width: 1; stroke-dasharray: none; stroke-linecap: butt; stroke-linejoin: miter; stroke-miterlimit: 10; fill: rgb(245,222,179); fill-rule: nonzero; opacity: 1; white-space: pre;" ><tspan x="-88.36" y="9.42" >Your Name</tspan></text>
	</g>
</svg>