<?xml version="1.0" encoding="utf-8"?>
<!-- Generator: Adobe Illustrator 21.0.0, SVG Export Plug-In . SVG Version: 6.00 Build 0)  -->
<svg version="1.1" id="Layer_1" xmlns="http://www.w3.org/2000/svg" xmlns:xlink="http://www.w3.org/1999/xlink" x="0px" y="0px"
	 viewBox="0 0 24 24" style="enable-background:new 0 0 24 24;" xml:space="preserve">
<path d="M7.1,5.2V6H3C2.5,6,2.2,6.4,2.2,6.8v13.1c0,2.1,1.7,3.8,3.8,3.8h11.9c2.1,0,3.8-1.7,3.8-3.8V6.8C21.8,6.4,21.4,6,21,6h-4.1
	V5.2c0-2.7-2.2-4.9-4.9-4.9S7.1,2.5,7.1,5.2L7.1,5.2z M16.2,10.1c0.4,0,0.7-0.3,0.7-0.8V7.5h3.4v12.4c0,1.3-1.1,2.3-2.3,2.3H6.1
	c-1.3,0-2.3-1.1-2.3-2.3V7.5h3.4v1.9c0,0.4,0.3,0.8,0.7,0.8c0.4,0,0.8-0.3,0.8-0.8V7.5h6.8v1.9C15.4,9.8,15.8,10.1,16.2,10.1
	L16.2,10.1z M15.4,5.2V6H8.6V5.2c0-1.9,1.5-3.4,3.4-3.4C13.9,1.8,15.4,3.3,15.4,5.2L15.4,5.2z"/>
</svg>
