<?xml version="1.0" encoding="utf-8"?>
<!-- Generator: Adobe Illustrator 21.0.0, SVG Export Plug-In . SVG Version: 6.00 Build 0)  -->
<svg version="1.1" id="Layer_1" xmlns="http://www.w3.org/2000/svg" xmlns:xlink="http://www.w3.org/1999/xlink" x="0px" y="0px"
	 viewBox="0 0 24 24" style="enable-background:new 0 0 24 24;" xml:space="preserve">
<g>
	<path d="M23.8,12.1c0-6.5-5.3-11.8-11.8-11.8S0.3,5.6,0.3,12.1c0,3.4,1.5,6.5,3.8,8.7l0,0l0.4,0.3c0,0,0.1,0,0.1,0.1
		c0.2,0.2,0.4,0.3,0.6,0.5c0.1,0.1,0.1,0.1,0.2,0.2c0.2,0.2,0.5,0.3,0.7,0.5c0.1,0,0.1,0.1,0.2,0.1c0.3,0.2,0.5,0.3,0.8,0.4
		c0,0,0,0,0.1,0c0.9,0.4,1.8,0.7,2.8,0.9c0,0,0.1,0,0.1,0c0.3,0.1,0.6,0.1,0.9,0.1c0,0,0.1,0,0.1,0c0.3,0,0.6,0,1,0
		c0.3,0,0.6,0,0.9,0c0,0,0.1,0,0.1,0c0.3,0,0.6-0.1,0.9-0.1c0,0,0.1,0,0.1,0c1-0.2,1.9-0.5,2.8-0.9c0,0,0.1,0,0.1,0
		c0.3-0.1,0.5-0.3,0.8-0.4c0.1,0,0.1-0.1,0.2-0.1c0.2-0.1,0.5-0.3,0.7-0.4c0.1-0.1,0.2-0.1,0.2-0.2c0.2-0.1,0.4-0.3,0.5-0.4
		c0,0,0.1-0.1,0.1-0.1l0.4-0.3l0,0C22.3,18.6,23.8,15.5,23.8,12.1L23.8,12.1z M1.1,12.1C1.1,6.1,6,1.2,12,1.2s10.9,4.9,10.9,10.9
		c0,3.2-1.4,6.1-3.7,8.1c-0.1-0.1-0.2-0.2-0.4-0.2l-3.6-1.8c-0.3-0.2-0.5-0.5-0.5-0.9v-1.3c0.1-0.1,0.2-0.2,0.3-0.3
		c0.5-0.7,0.9-1.4,1.1-2.2c0.5-0.3,0.9-0.8,0.9-1.4v-1.5c0-0.4-0.1-0.7-0.4-1v-2c0-0.2,0.1-1.5-0.8-2.5C15,4.2,13.7,3.7,12,3.7
		S9,4.2,8.2,5.1c-0.9,1-0.8,2.3-0.8,2.5v2C7.2,9.9,7,10.2,7,10.6v1.5c0,0.5,0.2,0.9,0.6,1.2c0.3,1.4,1.1,2.4,1.3,2.7v1.2
		c0,0.3-0.2,0.7-0.5,0.8l-3.4,1.8C5,20,4.9,20.1,4.7,20.2C2.5,18.2,1.1,15.3,1.1,12.1L1.1,12.1z"/>
</g>
</svg>
